# xmcd
#
# Track frame offsets:
#	150
#	18912
#	38189
#	57733
#	74503
#	93270
#	111871
#	127782
#	146298
#	160895
#	178635
#	194050
#	208664
#	231322
#	247351
#	269755
#	308519
#
# Disc length: 4398 seconds
#
# Revision: 0
# Processed by: cddbd v1.4PL0 Copyright (c) Steve Scherf et al.
# Submitted via: audiograbber 1.80.04
#
DISCID=00112c11
DTITLE=Greg "Fingers" Taylor - Back To The Blues
DYEAR=2000
DGENRE=
TTITLE0=Sunburn
TTITLE1=Real Good Time
TTITLE2=Messin' With The Kid
TTITLE3=Drop Down Mama
TTITLE4=Too Late
TTITLE5=Littlegirl
TTITLE6=Mississippi Steam Boat
TTITLE7=Two Headed Woman
TTITLE8=Cross Town Boogie
TTITLE9=I'm Tired
TTITLE10=Shim Sham Shimmy
TTITLE11=Dixie Diner
TTITLE12=Subway Swing
TTITLE13=Geronimo Rock
TTITLE14=Good Rockin' Woman
TTITLE15=Crackhead Baby
TTITLE16=Pork Juice
EXTD=
EXTT0=
EXTT1=
EXTT2=
EXTT3=
EXTT4=
EXTT5=
EXTT6=
EXTT7=
EXTT8=
EXTT9=
EXTT10=
EXTT11=
EXTT12=
EXTT13=
EXTT14=
EXTT15=
EXTT16=
PLAYORDER=
